<svg xmlns="http://www.w3.org/2000/svg" width="199.97915649414062" height="242.26145935058594" viewBox="-106.3861312866211 -127.06990051269531 199.97915649414062 242.26145935058594"><title>Neo4j Graph Visualization</title><desc>Created using Neo4j (http://www.neo4j.com/)</desc><g class="layer relationships"><g class="relationship" transform="translate(-32.155729864163526 86.1915740809637) rotate(251.544747472866)"><path class="outline" fill="#A5ABB6" stroke="none" d="M 24.018736134675446,6.953439040707552 L 24.277555179777966,5.987513214418485 A 176.8253089847194 176.8253089847194 0 0 0 43.146032631328026,9.955015448758019 L 42.99392046862762,10.943378686620804 A 177.8253089847194 177.8253089847194 0 0 1 24.018736134675446,6.953439040707552 Z M 92.82956517362877,11.546750046907277 L 92.70142676350838,10.554993752320826 A 176.8253089847194 176.8253089847194 0 0 0 111.6604301616976,7.045477337400772 L 110.95435843023297,4.129750548069074 L 118.581471292049,5.883931095538584 L 112.60185913698378,10.933113056509704 L 111.89578740551914,8.017386267178006 A 177.8253089847194 177.8253089847194 0 0 1 92.82956517362877,11.546750046907277"/><text text-anchor="middle" pointer-events="none" font-size="8px" fill="#000000" x="67.89655273392792" y="15.49969433195065" transform="rotate(180 67.89655273392792 12.49969433195065)" font-family="sans-serif">FLIGHT_TO</text></g><g class="relationship" transform="translate(-77.38612887666109 -49.33951178705221) rotate(353.5222504032914)"><path class="outline" fill="#A5ABB6" stroke="none" d="M 12.066987298107785,-21.900635094610966 L 12.933012701892222,-21.400635094610966 A 65.95248900058367 65.95248900058367 0 0 1 43.363619638973475,-48.73684591403787 L 42.95899618374646,-49.65132929796573 A 66.95248900058367 66.95248900058367 0 0 0 12.066987298107785,-21.900635094610966 Z M 91.9851121869912,-51.68153734456 L 91.65748331321493,-50.73673084528721 A 65.95248900058367 65.95248900058367 0 0 1 124.24405103082306,-26.010108251228175 L 121.77888975035347,-24.300435808544027 L 128.644146943831,-20.54301067057984 L 127.53093273811584,-28.28967150814037 L 125.06577145764625,-26.57999906545622 A 66.95248900058367 66.95248900058367 0 0 0 91.9851121869912,-51.68153734456"/><text text-anchor="middle" pointer-events="none" font-size="8px" fill="#000000" x="67.30005293547174" y="-51.819974749839005" font-family="sans-serif">FLIGHT_TO</text></g><g class="relationship" transform="translate(-77.38612887666109 -49.33951178705221) rotate(353.5222504032914)"><path class="outline" fill="#A5ABB6" stroke="none" d="M 21.40063509461097,-12.933012701892217 L 21.90063509461097,-12.06698729810778 A 96.29781704920096 96.29781704920096 0 0 1 43.339289401562894,-21.18999093574874 L 43.061918065055835,-22.150753727328578 A 97.29781704920096 97.29781704920096 0 0 0 21.40063509461097,-12.933012701892217 Z M 92.61675713557572,-23.315156215231468 L 92.38481756898759,-22.342426017565685 A 96.29781704920096 96.29781704920096 0 0 1 114.22830591590045,-14.236433746185197 L 112.85198928743159,-11.570772001289548 L 120.67756942540177,-11.469305237240476 L 116.06339475385892,-17.790649406046064 L 114.68707812539006,-15.124987661150415 A 97.29781704920096 97.29781704920096 0 0 0 92.61675713557572,-23.315156215231468"/><text text-anchor="middle" pointer-events="none" font-size="8px" fill="#000000" x="67.7756886582614" y="-22.44173746984245" font-family="sans-serif">FLIGHT_TO</text></g><g class="relationship" transform="translate(-77.38612887666109 -49.33951178705221) rotate(353.5222504032914)"><path class="outline" fill="#A5ABB6" stroke="none" d="M 25 0.5 L 43.014068024766104 0.5 L 43.014068024766104 -0.5 L 25 -0.5 Z M 92.8773492747661 0.5 L 110.89141729953221 0.5 L 110.89141729953221 3.5 L 117.89141729953221 0 L 110.89141729953221 -3.5 L 110.89141729953221 -0.5 L 92.8773492747661 -0.5 Z"/><text text-anchor="middle" pointer-events="none" font-size="8px" fill="#000000" x="67.9457086497661" y="3" font-family="sans-serif">FLIGHT_TO</text></g><g class="relationship" transform="translate(-77.38612887666109 -49.33951178705221) rotate(353.5222504032914)"><path class="outline" fill="#A5ABB6" stroke="none" d="M 21.40063509461097,12.933012701892217 L 21.90063509461097,12.06698729810778 A 96.29781704920096 96.29781704920096 0 0 0 43.339289401562894,21.18999093574874 L 43.061918065055835,22.150753727328578 A 97.29781704920096 97.29781704920096 0 0 1 21.40063509461097,12.933012701892217 Z M 92.61675713557571,23.315156215231468 L 92.38481756898756,22.3424260175657 A 96.29781704920096 96.29781704920096 0 0 0 114.22830591590045,14.236433746185197 L 112.85198928743159,11.570772001289548 L 120.67756942540177,11.469305237240476 L 116.06339475385892,17.790649406046064 L 114.68707812539006,15.124987661150415 A 97.29781704920096 97.29781704920096 0 0 1 92.61675713557571,23.315156215231468"/><text text-anchor="middle" pointer-events="none" font-size="8px" fill="#000000" x="67.77568865826139" y="28.44173746984245" font-family="sans-serif">FLIGHT_TO</text></g><g class="relationship" transform="translate(-77.38612887666109 -49.33951178705221) rotate(353.5222504032914)"><path class="outline" fill="#A5ABB6" stroke="none" d="M 12.066987298107785,21.900635094610966 L 12.933012701892222,21.400635094610966 A 65.95248900058367 65.95248900058367 0 0 0 43.36361963897349,48.73684591403787 L 42.95899618374648,49.651329297965745 A 66.95248900058367 66.95248900058367 0 0 1 12.066987298107785,21.900635094610966 Z M 91.98511218699122,51.68153734456 L 91.65748331321494,50.73673084528721 A 65.95248900058367 65.95248900058367 0 0 0 124.24405103082306,26.010108251228175 L 121.77888975035347,24.300435808544027 L 128.644146943831,20.54301067057984 L 127.53093273811584,28.28967150814037 L 125.06577145764625,26.57999906545622 A 66.95248900058367 66.95248900058367 0 0 1 91.98511218699122,51.68153734456"/><text text-anchor="middle" pointer-events="none" font-size="8px" fill="#000000" x="67.30005293547175" y="57.819974749839005" font-family="sans-serif">FLIGHT_TO</text></g><g class="relationship" transform="translate(-77.38612887666109 -49.33951178705221) rotate(431.544747472866)"><path class="outline" fill="#A5ABB6" stroke="none" d="M 24.018736134675446,6.953439040707552 L 24.277555179777966,5.987513214418485 A 176.8253089847194 176.8253089847194 0 0 0 43.146032631328026,9.955015448758019 L 42.99392046862762,10.943378686620804 A 177.8253089847194 177.8253089847194 0 0 1 24.018736134675446,6.953439040707552 Z M 92.82956517362877,11.546750046907277 L 92.70142676350838,10.554993752320826 A 176.8253089847194 176.8253089847194 0 0 0 111.6604301616976,7.045477337400772 L 110.95435843023297,4.129750548069074 L 118.581471292049,5.883931095538584 L 112.60185913698378,10.933113056509704 L 111.89578740551914,8.017386267178006 A 177.8253089847194 177.8253089847194 0 0 1 92.82956517362877,11.546750046907277"/><text text-anchor="middle" pointer-events="none" font-size="8px" fill="#000000" x="67.89655273392792" y="15.49969433195065" font-family="sans-serif">FLIGHT_TO</text></g></g><g class="layer nodes"><g class="node" aria-label="graph-node28" transform="translate(-32.155729864163526,86.1915740809637)"><circle class="outline" cx="0" cy="0" r="25" fill="#FFC454" stroke="#d7a013" stroke-width="2px"/><text class="caption" text-anchor="middle" pointer-events="none" x="0" y="5" font-size="10px" fill="#2A2C34" font-family="sans-serif"> MSN</text></g><g class="node" aria-label="graph-node75" transform="translate(64.59303280712146,-65.46014407736232)"><circle class="outline" cx="0" cy="0" r="25" fill="#FFC454" stroke="#d7a013" stroke-width="2px"/><text class="caption" text-anchor="middle" pointer-events="none" x="0" y="5" font-size="10px" fill="#2A2C34" font-family="sans-serif"> GRR</text></g><g class="node" aria-label="graph-node14" transform="translate(-77.38612887666109,-49.33951178705221)"><circle class="outline" cx="0" cy="0" r="25" fill="#FFC454" stroke="#d7a013" stroke-width="2px"/><text class="caption" text-anchor="middle" pointer-events="none" x="0" y="5" font-size="10px" fill="#2A2C34" font-family="sans-serif"> ORD</text></g></g></svg>